# Blender v2.83.2 OBJ File: 'GunMount.blend'
# www.blender.org
mtllib GunMount.mtl
o 円
v 0.000083 0.031832 -0.030000
v -0.009484 0.028026 -0.030000
v -0.017595 0.017188 -0.030000
v -0.023014 0.000966 -0.030000
v -0.024917 -0.018168 -0.030000
v 0.025083 -0.018168 -0.030000
v 0.023180 0.000966 -0.030000
v 0.017760 0.017188 -0.030000
v 0.009650 0.028026 -0.030000
v -0.075372 -0.376984 -0.045000
v 0.074628 -0.376984 -0.045000
v 0.000083 0.031832 0.030000
v -0.009484 0.028026 0.030000
v -0.017595 0.017188 0.030000
v -0.023014 0.000966 0.030000
v -0.024917 -0.018168 0.030000
v 0.025083 -0.018168 0.030000
v 0.023180 0.000966 0.030000
v 0.017760 0.017188 0.030000
v 0.009650 0.028026 0.030000
v -0.075372 -0.376984 0.045000
v 0.074628 -0.376984 0.045000
vt 0.342301 0.459359
vt 0.308338 0.455981
vt 0.342301 0.370610
vt 0.260307 0.400417
vt 0.279545 0.448776
vt 0.260307 0.434380
vt 0.093090 0.471872
vt 0.235089 0.487891
vt 0.093090 0.487891
vt 0.093090 0.512259
vt 0.235089 0.528278
vt 0.093090 0.528278
vt 0.057590 0.000105
vt 0.235089 0.428880
vt 0.093090 0.428880
vt 0.093090 0.451634
vt 0.235089 0.471872
vt 0.093090 0.500075
vt 0.235089 0.512259
vt 0.093090 0.548516
vt 0.235089 0.571269
vt 0.093090 0.571270
vt 0.235089 0.451634
vt 0.337483 0.929571
vt 0.869980 0.610073
vt 0.869980 0.929572
vt 0.235089 0.500075
vt 0.235089 0.548516
vt 0.057591 0.999895
vt 0.270590 0.999895
vt 0.279545 0.446362
vt 0.260307 0.431966
vt 0.279545 0.383607
vt 0.253551 0.414984
vt 0.260307 0.398003
vt 0.308338 0.373988
vt 0.979753 0.282667
vt 0.979753 0.548916
vt 0.253551 0.417399
vt 0.279545 0.386021
vt 0.308338 0.376401
vt 0.342301 0.373024
vt 0.308338 0.458396
vt 0.979753 0.283467
vt 0.979753 0.549715
vt 0.342301 0.461773
vt 0.270590 0.000105
vt 0.337483 0.610073
vn 0.0000 0.0000 -1.0000
vn 0.0000 -0.0000 1.0000
vn -0.8007 0.5991 -0.0000
vn 0.8007 0.5991 -0.0000
vn -0.9903 0.1392 0.0000
vn -0.9485 0.3169 -0.0000
vn 0.3696 0.9292 -0.0000
vn 0.9951 0.0990 0.0000
vn -0.9951 0.0990 -0.0000
vn 0.0000 -1.0000 0.0000
vn -0.3696 0.9292 -0.0000
vn 0.9485 0.3169 0.0000
vn 0.9906 0.1368 0.0000
vn -0.0000 0.0418 -0.9991
vn 0.0000 0.0418 0.9991
usemtl None
s off
f 5/1/1 4/2/1 6/3/1
f 13/4/2 19/5/2 20/6/2
f 3/7/3 13/8/3 2/9/3
f 9/10/4 19/11/4 8/12/4
f 10/13/5 16/14/5 5/15/5
f 4/16/6 14/17/6 3/7/6
f 1/18/7 20/19/7 9/10/7
f 7/20/8 17/21/8 6/22/8
f 5/15/9 15/23/9 4/16/9
f 11/24/10 21/25/10 10/26/10
f 1/18/11 13/8/11 12/27/11
f 8/12/12 18/28/12 7/20/12
f 11/29/13 17/21/13 22/30/13
f 3/31/1 2/32/1 8/33/1
f 2/32/1 1/34/1 9/35/1
f 8/33/1 2/32/1 9/35/1
f 8/33/1 7/36/1 3/31/1
f 7/36/1 6/3/1 4/2/1
f 3/31/1 7/36/1 4/2/1
f 6/3/14 11/37/14 5/1/14
f 11/37/14 10/38/14 5/1/14
f 12/39/2 13/4/2 20/6/2
f 13/4/2 14/40/2 19/5/2
f 14/40/2 15/41/2 19/5/2
f 15/41/2 16/42/2 18/43/2
f 19/5/2 15/41/2 18/43/2
f 16/42/15 21/44/15 22/45/15
f 17/46/2 18/43/2 16/42/2
f 16/42/15 22/45/15 17/46/15
f 3/7/3 14/17/3 13/8/3
f 9/10/4 20/19/4 19/11/4
f 10/13/5 21/47/5 16/14/5
f 4/16/6 15/23/6 14/17/6
f 1/18/7 12/27/7 20/19/7
f 7/20/8 18/28/8 17/21/8
f 5/15/9 16/14/9 15/23/9
f 11/24/10 22/48/10 21/25/10
f 1/18/11 2/9/11 13/8/11
f 8/12/12 19/11/12 18/28/12
f 11/29/13 6/22/13 17/21/13
