# Blender 3.3.1
# www.blender.org
mtllib GMissile-Launcher.mtl
o GMlauncher
v -0.117008 0.000000 0.643013
v -0.081297 0.000000 0.610484
v -0.100000 -0.000000 -0.637999
v -0.108101 -0.044777 0.643013
v -0.075109 -0.031111 0.610484
v -0.092388 -0.038268 -0.637999
v -0.082737 -0.082737 0.643013
v -0.057486 -0.057486 0.610484
v -0.070711 -0.070711 -0.637999
v -0.044777 -0.108101 0.643013
v -0.031111 -0.075109 0.610484
v -0.038268 -0.092388 -0.637999
v 0.000000 -0.117008 0.643013
v 0.000000 -0.081297 0.610484
v -0.000000 -0.100000 -0.637999
v 0.044777 -0.108101 0.643013
v 0.031111 -0.075109 0.610484
v 0.038268 -0.092388 -0.637999
v 0.082737 -0.082737 0.643013
v 0.057486 -0.057486 0.610484
v 0.070711 -0.070711 -0.637999
v 0.108101 -0.044777 0.643013
v 0.075109 -0.031111 0.610484
v 0.092388 -0.038268 -0.637999
v 0.117008 0.000000 0.643013
v 0.081297 0.000000 0.610484
v 0.100000 -0.000000 -0.637999
v 0.108101 0.044777 0.643013
v 0.075109 0.031111 0.610484
v 0.092388 0.038268 -0.637999
v 0.082737 0.082737 0.643013
v 0.057486 0.057486 0.610484
v 0.070711 0.070711 -0.637999
v 0.044777 0.108101 0.643013
v 0.031111 0.075109 0.610484
v 0.038268 0.092388 -0.637999
v 0.000000 0.117008 0.643013
v 0.000000 0.081297 0.610484
v -0.000000 0.100000 -0.637999
v -0.044777 0.108101 0.643013
v -0.031111 0.075109 0.610484
v -0.038268 0.092388 -0.637999
v -0.082737 0.082737 0.643013
v -0.057486 0.057486 0.610484
v -0.070711 0.070711 -0.637999
v -0.108101 0.044777 0.643013
v -0.075109 0.031111 0.610484
v -0.092388 0.038268 -0.637999
v -0.075109 0.031111 -0.637999
v -0.075109 -0.031111 -0.637999
v -0.081297 -0.000000 -0.637999
v 0.031111 0.075109 -0.637999
v -0.000000 0.081297 -0.637999
v -0.031111 0.075109 -0.637999
v 0.075109 0.031111 -0.637999
v 0.075109 -0.031111 -0.637999
v 0.081297 -0.000000 -0.637999
v 0.031111 -0.075109 -0.637999
v -0.000000 -0.081297 -0.637999
v -0.031111 -0.075109 -0.637999
v 0.057486 0.057486 -0.637999
v -0.057486 -0.057486 -0.637999
v -0.057486 0.057486 -0.637999
v 0.057486 -0.057486 -0.637999
v -0.100000 0.000000 0.533115
v -0.038268 0.092388 0.533115
v 0.092388 -0.038268 0.533115
v -0.070711 0.070711 0.533115
v -0.092388 -0.038268 0.533115
v 0.100000 0.000000 0.533115
v -0.092388 0.038268 0.533115
v -0.070711 -0.070711 0.533115
v 0.092388 0.038268 0.533115
v -0.038268 -0.092388 0.533115
v 0.070711 0.070711 0.533115
v 0.000000 -0.100000 0.533115
v 0.038268 0.092388 0.533115
v 0.038268 -0.092388 0.533115
v 0.000000 0.100000 0.533115
v 0.070711 -0.070711 0.533115
v -0.117008 0.000000 0.574031
v -0.044777 0.108101 0.574031
v 0.108101 -0.044777 0.574031
v -0.082737 0.082737 0.574031
v -0.108101 -0.044777 0.574031
v 0.117008 0.000000 0.574031
v -0.108101 0.044777 0.574031
v -0.082737 -0.082737 0.574031
v 0.108101 0.044777 0.574031
v -0.044777 -0.108101 0.574031
v 0.082737 0.082737 0.574031
v 0.000000 -0.117008 0.574031
v 0.044777 0.108101 0.574031
v 0.044777 -0.108101 0.574031
v 0.000000 0.117008 0.574031
v 0.082737 -0.082737 0.574031
vn -0.9797 -0.0000 -0.2005
vn -0.7462 -0.0000 -0.6657
vn -0.6894 -0.2856 -0.6657
vn -0.9051 -0.3749 -0.2005
vn -0.5276 -0.5276 -0.6657
vn -0.6927 -0.6927 -0.2005
vn -0.2856 -0.6894 -0.6657
vn -0.3749 -0.9051 -0.2005
vn -0.0000 -0.7462 -0.6657
vn -0.0000 -0.9797 -0.2005
vn 0.2856 -0.6894 -0.6657
vn 0.3749 -0.9051 -0.2005
vn 0.5276 -0.5276 -0.6657
vn 0.6927 -0.6927 -0.2005
vn 0.6894 -0.2856 -0.6657
vn 0.9051 -0.3749 -0.2005
vn 0.7462 -0.0000 -0.6657
vn 0.9797 -0.0000 -0.2005
vn 0.6894 0.2856 -0.6657
vn 0.9051 0.3749 -0.2005
vn 0.5276 0.5276 -0.6657
vn 0.6927 0.6927 -0.2005
vn 0.2856 0.6894 -0.6657
vn 0.3749 0.9051 -0.2005
vn -0.0000 0.7462 -0.6657
vn -0.0000 0.9797 -0.2005
vn -0.2856 0.6894 -0.6657
vn -0.3749 0.9051 -0.2005
vn -0.5276 0.5276 -0.6657
vn -0.6927 0.6927 -0.2005
vn -0.0000 -0.0000 -1.0000
vn -0.6894 0.2856 -0.6657
vn -0.9051 0.3749 -0.2005
vn -0.0000 -0.0000 1.0000
vn 0.6071 0.2515 -0.7538
vn 0.6571 -0.0000 -0.7538
vn 0.4647 0.4647 -0.7538
vn 0.2515 0.6071 -0.7538
vn -0.0000 0.6571 -0.7538
vn -0.2515 0.6071 -0.7538
vn -0.4647 0.4647 -0.7538
vn -0.6071 0.2515 -0.7538
vn -0.6571 -0.0000 -0.7538
vn -0.6071 -0.2515 -0.7538
vn -0.4647 -0.4647 -0.7538
vn -0.2515 -0.6071 -0.7538
vn -0.0000 -0.6571 -0.7538
vn 0.2515 -0.6071 -0.7538
vn 0.4647 -0.4647 -0.7538
vn 0.6071 -0.2515 -0.7538
vn -0.9068 0.3756 -0.1912
vn -0.9816 -0.0000 -0.1912
vn -0.6941 0.6941 -0.1912
vn -0.3756 0.9068 -0.1912
vn -0.0000 0.9816 -0.1912
vn 0.3756 0.9068 -0.1912
vn 0.6941 0.6941 -0.1912
vn 0.9068 0.3756 -0.1912
vn 0.9816 -0.0000 -0.1912
vn 0.9068 -0.3756 -0.1912
vn 0.6941 -0.6941 -0.1912
vn 0.3756 -0.9068 -0.1912
vn -0.0000 -0.9816 -0.1912
vn -0.3756 -0.9068 -0.1912
vn -0.6941 -0.6941 -0.1912
vn -0.9068 -0.3756 -0.1912
vn -0.7462 -0.0000 0.6657
vn -0.6894 -0.2856 0.6657
vn -0.5276 -0.5276 0.6657
vn -0.2856 -0.6894 0.6657
vn -0.0000 -0.7462 0.6657
vn 0.2856 -0.6894 0.6657
vn 0.5276 -0.5276 0.6657
vn 0.6894 -0.2856 0.6657
vn 0.7462 -0.0000 0.6657
vn 0.6894 0.2856 0.6657
vn 0.5276 0.5276 0.6657
vn 0.2856 0.6894 0.6657
vn -0.0000 0.7462 0.6657
vn -0.2856 0.6894 0.6657
vn -0.5276 0.5276 0.6657
vn -0.6894 0.2856 0.6657
vt 0.750000 0.490000
vt 1.000000 0.500000
vt 0.000000 0.500000
vt 1.000000 0.500000
vt 0.000000 0.500000
vt 0.750000 0.490000
vt 1.000000 1.000000
vt 0.000000 1.000000
vt 0.250000 0.490000
vt 0.841844 0.471731
vt 0.937500 0.500000
vt 0.937500 0.500000
vt 0.841844 0.471731
vt 0.937500 1.000000
vt 0.341844 0.471731
vt 0.919706 0.419706
vt 0.875000 0.500000
vt 0.875000 0.500000
vt 0.919706 0.419706
vt 0.875000 1.000000
vt 0.419706 0.419706
vt 0.971731 0.341844
vt 0.812500 0.500000
vt 0.812500 0.500000
vt 0.971731 0.341844
vt 0.812500 1.000000
vt 0.471731 0.341844
vt 0.990000 0.250000
vt 0.750000 0.500000
vt 0.750000 0.500000
vt 0.990000 0.250000
vt 0.750000 1.000000
vt 0.490000 0.250000
vt 0.971731 0.158156
vt 0.687500 0.500000
vt 0.687500 0.500000
vt 0.971731 0.158156
vt 0.687500 1.000000
vt 0.471731 0.158156
vt 0.919706 0.080294
vt 0.625000 0.500000
vt 0.625000 0.500000
vt 0.919706 0.080294
vt 0.625000 1.000000
vt 0.419706 0.080294
vt 0.841844 0.028269
vt 0.562500 0.500000
vt 0.562500 0.500000
vt 0.841844 0.028269
vt 0.562500 1.000000
vt 0.341844 0.028269
vt 0.750000 0.010000
vt 0.500000 0.500000
vt 0.500000 0.500000
vt 0.750000 0.010000
vt 0.500000 1.000000
vt 0.250000 0.010000
vt 0.658156 0.028269
vt 0.437500 0.500000
vt 0.437500 0.500000
vt 0.658156 0.028269
vt 0.437500 1.000000
vt 0.158156 0.028269
vt 0.580294 0.080294
vt 0.375000 0.500000
vt 0.375000 0.500000
vt 0.580294 0.080294
vt 0.375000 1.000000
vt 0.080294 0.080294
vt 0.528269 0.158156
vt 0.312500 0.500000
vt 0.312500 0.500000
vt 0.528269 0.158156
vt 0.312500 1.000000
vt 0.028269 0.158156
vt 0.510000 0.250000
vt 0.250000 0.500000
vt 0.250000 0.500000
vt 0.510000 0.250000
vt 0.250000 1.000000
vt 0.010000 0.250000
vt 0.528269 0.341844
vt 0.187500 0.500000
vt 0.187500 0.500000
vt 0.528269 0.341844
vt 0.187500 1.000000
vt 0.028269 0.341844
vt 0.580294 0.419706
vt 0.125000 0.500000
vt 0.125000 0.500000
vt 0.580294 0.419706
vt 0.125000 1.000000
vt 0.080294 0.419706
vt 0.658156 0.471731
vt 0.062500 0.500000
vt 0.062500 0.500000
vt 0.658156 0.471731
vt 0.062500 1.000000
vt 0.158156 0.471731
vt 0.062500 0.849550
vt 0.175334 0.430261
vt 0.937500 0.849550
vt 0.324666 0.430261
vt 1.000000 0.849550
vt 0.000000 0.849550
vt 0.250000 0.445113
vt 0.312500 0.849550
vt 0.069739 0.175334
vt 0.250000 0.849550
vt 0.054887 0.250000
vt 0.187500 0.849550
vt 0.069739 0.324666
vt 0.437500 0.849550
vt 0.175334 0.069739
vt 0.562500 0.849550
vt 0.324666 0.069739
vt 0.500000 0.849550
vt 0.250000 0.054887
vt 0.687500 0.849550
vt 0.430261 0.175334
vt 0.750000 0.849550
vt 0.445113 0.250000
vt 0.812500 0.849550
vt 0.430261 0.324666
vt 0.375000 0.849550
vt 0.112034 0.112034
vt 0.875000 0.849550
vt 0.387966 0.387966
vt 0.125000 0.849550
vt 0.112034 0.387966
vt 0.625000 0.849550
vt 0.387966 0.112034
vt 0.000000 0.750000
vt 1.000000 0.750000
vt 0.187500 0.750000
vt 0.562500 0.750000
vt 0.125000 0.750000
vt 0.937500 0.750000
vt 0.500000 0.750000
vt 0.062500 0.750000
vt 0.875000 0.750000
vt 0.437500 0.750000
vt 0.812500 0.750000
vt 0.375000 0.750000
vt 0.750000 0.750000
vt 0.312500 0.750000
vt 0.687500 0.750000
vt 0.250000 0.750000
vt 0.625000 0.750000
vt 1.000000 0.625000
vt 0.000000 0.625000
vt 0.187500 0.625000
vt 0.562500 0.625000
vt 0.125000 0.625000
vt 0.937500 0.625000
vt 0.500000 0.625000
vt 0.062500 0.625000
vt 0.875000 0.625000
vt 0.437500 0.625000
vt 0.812500 0.625000
vt 0.375000 0.625000
vt 0.750000 0.625000
vt 0.312500 0.625000
vt 0.687500 0.625000
vt 0.250000 0.625000
vt 0.625000 0.625000
s 1
usemtl 
f 65/134/1 3/7/2 6/14/3 69/138/4
f 69/138/4 6/14/3 9/20/5 72/141/6
f 72/141/6 9/20/5 12/26/7 74/143/8
f 74/143/8 12/26/7 15/32/9 76/145/10
f 76/145/10 15/32/9 18/38/11 78/147/12
f 78/147/12 18/38/11 21/44/13 80/149/14
f 80/149/14 21/44/13 24/50/15 67/136/16
f 67/136/16 24/50/15 27/56/17 70/139/18
f 70/139/18 27/56/17 30/62/19 73/142/20
f 73/142/20 30/62/19 33/68/21 75/144/22
f 75/144/22 33/68/21 36/74/23 77/146/24
f 77/146/24 36/74/23 39/80/25 79/148/26
f 79/148/26 39/80/25 42/86/27 66/135/28
f 66/135/28 42/86/27 45/92/29 68/137/30
s 0
f 24/51/31 21/45/31 64/132/31 56/116/31
f 49/101/31 48/99/31 45/93/31 63/130/31
s 1
f 68/137/30 45/92/29 48/98/32 71/140/33
f 71/140/33 48/98/32 3/8/2 65/133/1
s 0
f 46/94/34 1/1/34 4/10/34 7/16/34 10/22/34 13/28/34 16/34/34 19/40/34 22/46/34 25/52/34 28/58/34 31/64/34 34/70/34 37/76/34 40/82/34 43/88/34
s 1
f 2/4/17 5/12/19 50/102/35 51/104/36
f 50/102/35 5/12/19 8/18/21 62/127/37
f 8/18/21 11/24/23 60/123/38 62/127/37
f 11/24/23 14/30/25 59/121/39 60/123/38
f 14/30/25 17/36/27 58/119/40 59/121/39
f 17/36/27 20/42/29 64/131/41 58/119/40
f 20/42/29 23/48/32 56/115/42 64/131/41
f 23/48/32 26/54/2 57/117/43 56/115/42
f 26/54/2 29/60/3 55/113/44 57/117/43
f 29/60/3 32/66/5 61/125/45 55/113/44
f 61/125/45 32/66/5 35/72/7 52/107/46
f 35/72/7 38/78/9 53/109/47 52/107/46
f 38/78/9 41/84/11 54/111/48 53/109/47
f 54/111/48 41/84/11 44/90/13 63/129/49
f 63/129/49 44/90/13 47/96/15 49/100/50
f 47/96/15 2/5/17 51/105/36 49/100/50
s 0
f 8/19/31 5/13/31 2/6/31 47/97/31 44/91/31 41/85/31 38/79/31 35/73/31 32/67/31 29/61/31 26/55/31 23/49/31 20/43/31 17/37/31 14/31/31 11/25/31
s 1
f 87/157/51 71/140/33 65/133/1 81/151/52
f 84/154/53 68/137/30 71/140/33 87/157/51
f 82/152/54 66/135/28 68/137/30 84/154/53
f 95/165/55 79/148/26 66/135/28 82/152/54
f 93/163/56 77/146/24 79/148/26 95/165/55
f 91/161/57 75/144/22 77/146/24 93/163/56
f 89/159/58 73/142/20 75/144/22 91/161/57
f 86/156/59 70/139/18 73/142/20 89/159/58
f 83/153/60 67/136/16 70/139/18 86/156/59
f 96/166/61 80/149/14 67/136/16 83/153/60
f 94/164/62 78/147/12 80/149/14 96/166/61
f 92/162/63 76/145/10 78/147/12 94/164/62
f 90/160/64 74/143/8 76/145/10 92/162/63
f 88/158/65 72/141/6 74/143/8 90/160/64
f 85/155/66 69/138/4 72/141/6 88/158/65
f 81/150/52 65/134/1 69/138/4 85/155/66
f 1/2/67 81/150/52 85/155/66 4/11/68
f 4/11/68 85/155/66 88/158/65 7/17/69
f 7/17/69 88/158/65 90/160/64 10/23/70
f 10/23/70 90/160/64 92/162/63 13/29/71
f 13/29/71 92/162/63 94/164/62 16/35/72
f 16/35/72 94/164/62 96/166/61 19/41/73
f 19/41/73 96/166/61 83/153/60 22/47/74
f 22/47/74 83/153/60 86/156/59 25/53/75
f 25/53/75 86/156/59 89/159/58 28/59/76
f 28/59/76 89/159/58 91/161/57 31/65/77
f 31/65/77 91/161/57 93/163/56 34/71/78
f 34/71/78 93/163/56 95/165/55 37/77/79
f 37/77/79 95/165/55 82/152/54 40/83/80
f 40/83/80 82/152/54 84/154/53 43/89/81
f 43/89/81 84/154/53 87/157/51 46/95/82
f 46/95/82 87/157/51 81/151/52 1/3/67
s 0
f 45/93/31 42/87/31 54/112/31 63/130/31
f 42/87/31 39/81/31 53/110/31 54/112/31
f 39/81/31 36/75/31 52/108/31 53/110/31
f 36/75/31 33/69/31 61/126/31 52/108/31
f 33/69/31 30/63/31 55/114/31 61/126/31
f 30/63/31 27/57/31 57/118/31 55/114/31
f 27/57/31 24/51/31 56/116/31 57/118/31
f 51/106/31 3/9/31 48/99/31 49/101/31
f 50/103/31 6/15/31 3/9/31 51/106/31
f 62/128/31 9/21/31 6/15/31 50/103/31
f 60/124/31 12/27/31 9/21/31 62/128/31
f 59/122/31 15/33/31 12/27/31 60/124/31
f 18/39/31 15/33/31 59/122/31 58/120/31
f 21/45/31 18/39/31 58/120/31 64/132/31
