# Blender v3.3.1 OBJ File: ''
# www.blender.org
mtllib party-cracker.mtl
o Cracker_Cone.002
v -1.550000 0.000000 -0.500000
v -1.550000 -0.097545 -0.490393
v -1.550000 -0.191342 -0.461940
v -1.550000 -0.277785 -0.415735
v -1.550000 -0.353553 -0.353553
v -1.550000 -0.415735 -0.277785
v -1.550000 -0.461940 -0.191342
v -1.550000 -0.490393 -0.097545
v -1.550000 -0.500000 0.000000
v -1.550000 -0.490393 0.097545
v -1.550000 -0.461940 0.191342
v -1.550000 -0.415735 0.277785
v -1.550000 -0.353553 0.353553
v -1.550000 -0.277785 0.415735
v -1.550000 -0.191342 0.461940
v -1.550000 -0.097545 0.490393
v -1.550000 0.000000 0.500000
v -1.550000 0.097545 0.490393
v -1.550000 0.191342 0.461940
v -1.550000 0.277785 0.415735
v -1.550000 0.353553 0.353553
v -1.550000 0.415735 0.277785
v -1.550000 0.461940 0.191342
v -1.550000 0.490393 0.097545
v -1.550000 0.500000 0.000000
v -1.550000 0.490393 -0.097545
v -1.550000 0.461940 -0.191342
v -1.550000 0.415735 -0.277785
v -1.550000 0.353553 -0.353553
v -1.550000 0.277785 -0.415735
v -1.550000 0.191342 -0.461940
v -1.550000 0.097545 -0.490393
v 0.265093 -0.000000 0.000000
v 0.457380 0.021928 -0.036389
v 0.457380 0.031011 -0.014461
v 0.028539 0.031011 -0.014461
v 0.739978 0.031011 -0.097764
v 0.028539 0.021928 -0.036389
v 0.728643 0.021928 -0.116535
v 0.028539 0.000000 -0.045471
v 0.723948 -0.000000 -0.124310
v 0.028539 -0.021928 -0.036389
v 0.728643 -0.021928 -0.116535
v 0.028539 -0.031011 -0.014461
v 0.739978 -0.031011 -0.097764
v 0.028539 -0.021928 0.007467
v 0.751313 -0.021928 -0.078993
v 0.028539 0.000000 0.016550
v 0.756008 -0.000000 -0.071218
v 0.028539 0.021928 0.007467
v 0.751313 0.021928 -0.078993
v 0.457380 -0.000000 -0.045472
v 0.457380 -0.021928 -0.036389
v 0.457380 -0.031011 -0.014461
v 0.457380 -0.021928 0.007467
v 0.457380 -0.000000 0.016550
v 0.457380 0.021928 0.007467
v 0.293894 0.021928 -0.042964
v 0.293894 0.000000 -0.052047
v 0.293894 -0.021928 -0.042964
v 0.293894 -0.031011 -0.021036
v 0.293894 -0.021928 0.000892
v 0.293894 0.000000 0.009975
v 0.293894 0.031011 -0.021036
v 0.293894 0.021928 0.000892
v 0.619579 0.021928 -0.021739
v 0.622300 -0.000000 -0.013074
v 0.613009 0.031011 -0.042660
v 0.619579 -0.021928 -0.021739
v 0.613009 -0.031011 -0.042660
v 0.606439 -0.021928 -0.063580
v 0.603718 -0.000000 -0.072246
v 0.606439 0.021928 -0.063580
vt 0.064145 0.419654
vt 0.596859 0.596880
vt 0.055643 0.447619
vt 0.048608 0.475988
vt 0.043059 0.504686
vt 0.039012 0.533633
vt 0.036476 0.562751
vt 0.035459 0.591962
vt 0.035964 0.621186
vt 0.037989 0.650345
vt 0.596859 0.035459
vt 0.567640 0.036220
vt 0.538500 0.038501
vt 0.509519 0.042295
vt 0.480774 0.047592
vt 0.452344 0.054378
vt 0.424306 0.062634
vt 0.396735 0.072338
vt 0.369707 0.083465
vt 0.343294 0.095982
vt 0.317569 0.109858
vt 0.292601 0.125053
vt 0.268457 0.141528
vt 0.245204 0.159236
vt 0.222903 0.178131
vt 0.201617 0.198161
vt 0.181401 0.219271
vt 0.162312 0.241405
vt 0.144400 0.264502
vt 0.127715 0.288501
vt 0.112301 0.313335
vt 0.098201 0.338938
vt 0.085453 0.365240
vt 0.615012 0.693974
vt 0.634684 0.664533
vt 0.659720 0.639497
vt 0.689161 0.619825
vt 0.721873 0.606275
vt 0.756600 0.599368
vt 0.792007 0.599368
vt 0.826734 0.606275
vt 0.859447 0.619825
vt 0.888887 0.639497
vt 0.913924 0.664533
vt 0.933595 0.693973
vt 0.947145 0.726686
vt 0.954053 0.761413
vt 0.954053 0.796820
vt 0.947145 0.831547
vt 0.933595 0.864260
vt 0.913924 0.893700
vt 0.888887 0.918737
vt 0.859447 0.938408
vt 0.826734 0.951958
vt 0.792007 0.958865
vt 0.756600 0.958865
vt 0.721873 0.951958
vt 0.689161 0.938408
vt 0.659720 0.918737
vt 0.634684 0.893700
vt 0.615012 0.864260
vt 0.601462 0.831547
vt 0.594555 0.796820
vt 0.594555 0.761413
vt 0.601462 0.726686
vt 0.074090 0.392169
vt 0.025406 0.959590
vt 0.157964 0.959630
vt 0.157974 0.971433
vt 0.025137 0.971465
vt 0.158053 0.936187
vt 0.241210 0.935974
vt 0.241533 0.948249
vt 0.157983 0.947910
vt 0.319946 0.923783
vt 0.389201 0.924413
vt 0.387585 0.936160
vt 0.319870 0.935667
vt 0.025520 0.947652
vt 0.241169 0.960533
vt 0.386907 0.947778
vt 0.319884 0.947896
vt 0.024887 0.888356
vt 0.158302 0.888210
vt 0.158306 0.900311
vt 0.024786 0.900177
vt 0.240334 0.972649
vt 0.387585 0.959388
vt 0.320012 0.960116
vt 0.158251 0.912411
vt 0.024898 0.911994
vt 0.158254 0.876242
vt 0.240601 0.876967
vt 0.239770 0.888787
vt 0.389192 0.971105
vt 0.320230 0.971980
vt 0.158155 0.924377
vt 0.025159 0.923827
vt 0.239417 0.900434
vt 0.319775 0.877499
vt 0.389089 0.876242
vt 0.390750 0.888204
vt 0.319941 0.889079
vt 0.025417 0.935712
vt 0.239683 0.912080
vt 0.391440 0.900332
vt 0.320028 0.900625
vt 0.525828 0.972732
vt 0.482669 0.972732
vt 0.452151 0.942214
vt 0.452151 0.899055
vt 0.482669 0.868536
vt 0.525828 0.868536
vt 0.556347 0.899055
vt 0.556347 0.942214
vt 0.240422 0.923899
vt 0.390805 0.912457
vt 0.320024 0.912176
vt 0.025138 0.876514
vn 0.2644 -0.0945 -0.9598
vn 0.2644 -0.2800 -0.9229
vn 0.2644 -0.4546 -0.8505
vn 0.2644 -0.6118 -0.7455
vn 0.2644 -0.7455 -0.6118
vn 0.2644 -0.8505 -0.4546
vn 0.2644 -0.9229 -0.2800
vn 0.2644 -0.9598 -0.0945
vn 0.2644 -0.9598 0.0945
vn 0.2644 -0.9229 0.2800
vn 0.2644 -0.8505 0.4546
vn 0.2644 -0.7455 0.6118
vn 0.2644 -0.6118 0.7455
vn 0.2644 -0.4546 0.8505
vn 0.2644 -0.2800 0.9229
vn 0.2644 -0.0945 0.9598
vn 0.2644 0.0945 0.9598
vn 0.2644 0.2800 0.9229
vn 0.2644 0.4546 0.8505
vn 0.2644 0.6118 0.7455
vn 0.2644 0.7455 0.6118
vn 0.2644 0.8505 0.4546
vn 0.2644 0.9229 0.2800
vn 0.2644 0.9598 0.0945
vn 0.2644 0.9598 -0.0945
vn 0.2644 0.9229 -0.2800
vn 0.2644 0.8505 -0.4546
vn 0.2644 0.7455 -0.6118
vn 0.2644 0.6118 -0.7455
vn 0.2644 0.4546 -0.8505
vn -1.0000 0.0000 0.0000
vn 0.2644 0.2800 -0.9229
vn 0.2644 0.0945 -0.9598
vn -0.0095 -0.9238 -0.3827
vn 0.0371 0.3824 -0.9232
vn -0.1532 0.9229 -0.3533
vn -0.0229 -0.3826 -0.9236
vn 0.0371 -0.3824 -0.9232
vn -0.3676 0.3803 -0.8487
vn 0.0229 -0.3826 0.9236
vn 0.0154 -0.9238 -0.3826
vn -0.3676 -0.3803 -0.8487
vn 0.0229 0.3826 0.9236
vn -0.0154 -0.9238 0.3826
vn -0.1532 -0.9229 -0.3533
vn 0.0095 0.9238 0.3827
vn -0.0371 -0.3824 0.9232
vn 0.1534 -0.9229 0.3532
vn -0.0095 0.9238 -0.3827
vn -0.0371 0.3824 0.9232
vn 0.3687 -0.3803 0.8482
vn 0.8560 0.0000 -0.5169
vn -0.0154 0.9238 0.3826
vn 0.3687 0.3803 0.8482
vn 0.0095 -0.9238 0.3827
vn 0.0154 0.9238 -0.3826
vn 0.1534 0.9229 0.3532
vn -0.0229 0.3826 -0.9236
vn 0.0687 0.9222 0.3805
vn 0.1638 0.3788 0.9109
vn 0.1638 -0.3788 0.9109
vn 0.0687 -0.9222 0.3805
vn -0.0692 -0.9222 -0.3804
vn -0.1663 -0.3788 -0.9104
vn -0.1663 0.3788 -0.9104
vn -0.0692 0.9222 -0.3804
usemtl マテリアル
s off
f 1/1/1 33/2/1 2/3/1
f 2/3/2 33/2/2 3/4/2
f 3/4/3 33/2/3 4/5/3
f 4/5/4 33/2/4 5/6/4
f 5/6/5 33/2/5 6/7/5
f 6/7/6 33/2/6 7/8/6
f 7/8/7 33/2/7 8/9/7
f 8/9/8 33/2/8 9/10/8
f 9/11/9 33/2/9 10/12/9
f 10/12/10 33/2/10 11/13/10
f 11/13/11 33/2/11 12/14/11
f 12/14/12 33/2/12 13/15/12
f 13/15/13 33/2/13 14/16/13
f 14/16/14 33/2/14 15/17/14
f 15/17/15 33/2/15 16/18/15
f 16/18/16 33/2/16 17/19/16
f 17/19/17 33/2/17 18/20/17
f 18/20/18 33/2/18 19/21/18
f 19/21/19 33/2/19 20/22/19
f 20/22/20 33/2/20 21/23/20
f 21/23/21 33/2/21 22/24/21
f 22/24/22 33/2/22 23/25/22
f 23/25/23 33/2/23 24/26/23
f 24/26/24 33/2/24 25/27/24
f 25/27/25 33/2/25 26/28/25
f 26/28/26 33/2/26 27/29/26
f 27/29/27 33/2/27 28/30/27
f 28/30/28 33/2/28 29/31/28
f 29/31/29 33/2/29 30/32/29
f 30/32/30 33/2/30 31/33/30
f 1/34/31 2/35/31 3/36/31 4/37/31 5/38/31 6/39/31 7/40/31 8/41/31 9/42/31 10/43/31 11/44/31 12/45/31 13/46/31 14/47/31 15/48/31 16/49/31 17/50/31 18/51/31 19/52/31 20/53/31 21/54/31 22/55/31 23/56/31 24/57/31 25/58/31 26/59/31 27/60/31 28/61/31 29/62/31 30/63/31 31/64/31 32/65/31
f 31/33/32 33/2/32 32/66/32
f 32/66/33 33/2/33 1/1/33
f 42/67/34 60/68/34 61/69/34 44/70/34
f 58/71/35 34/72/35 52/73/35 59/74/35
f 68/75/36 37/76/36 39/77/36 73/78/36
f 40/79/37 59/74/37 60/68/37 42/67/37
f 59/74/38 52/73/38 53/80/38 60/68/38
f 73/78/39 39/77/39 41/81/39 72/82/39
f 46/83/40 62/84/40 63/85/40 48/86/40
f 60/68/41 53/80/41 54/87/41 61/69/41
f 72/82/42 41/81/42 43/88/42 71/89/42
f 48/86/43 63/85/43 65/90/43 50/91/43
f 61/92/44 54/93/44 55/94/44 62/84/44
f 71/89/45 43/88/45 45/95/45 70/96/45
f 50/91/46 65/90/46 64/97/46 36/98/46
f 62/84/47 55/94/47 56/99/47 63/85/47
f 70/100/48 45/101/48 47/102/48 69/103/48
f 36/98/49 64/97/49 58/71/49 38/104/49
f 63/85/50 56/99/50 57/105/50 65/90/50
f 69/103/51 47/102/51 49/106/51 67/107/51
f 39/108/52 37/109/52 51/110/52 49/111/52 47/112/52 45/113/52 43/114/52 41/115/52
f 65/90/53 57/105/53 35/116/53 64/97/53
f 67/107/54 49/106/54 51/117/54 66/118/54
f 44/119/55 61/92/55 62/84/55 46/83/55
f 64/97/56 35/116/56 34/72/56 58/71/56
f 66/118/57 51/117/57 37/76/57 68/75/57
f 38/104/58 58/71/58 59/74/58 40/79/58
f 57/105/59 66/118/59 68/75/59 35/116/59
f 56/99/60 67/107/60 66/118/60 57/105/60
f 55/94/61 69/103/61 67/107/61 56/99/61
f 54/93/62 70/100/62 69/103/62 55/94/62
f 53/80/63 71/89/63 70/96/63 54/87/63
f 52/73/64 72/82/64 71/89/64 53/80/64
f 34/72/65 73/78/65 72/82/65 52/73/65
f 35/116/66 68/75/66 73/78/66 34/72/66
