# Blender v2.90.1 OBJ File: 'xmasBox.blend'
# www.blender.org
mtllib xmasBox.mtl
o 立方体
v -1.000000 -1.000000 1.000000
v -1.000000 1.000000 1.000000
v -1.000000 -1.000000 -1.000000
v -1.000000 1.000000 -1.000000
v 1.000000 -1.000000 1.000000
v 1.000000 1.000000 1.000000
v 1.000000 -1.000000 -1.000000
v 1.000000 1.000000 -1.000000
v -1.007143 0.616029 1.007143
v -1.007143 1.033325 1.007143
v -1.007143 0.616029 -1.007143
v -1.007143 1.033325 -1.007143
v 1.007143 0.616029 1.007143
v 1.007143 1.033325 1.007143
v 1.007143 0.616029 -1.007143
v 1.007143 1.033325 -1.007143
v -0.123953 -1.037568 1.037568
v -0.123953 1.078961 1.037568
v -0.123953 -1.037568 -1.037568
v -0.123953 1.078961 -1.037568
v 0.123953 -1.037568 1.037568
v 0.123953 1.078961 1.037568
v 0.123953 -1.037568 -1.037568
v 0.123953 1.078961 -1.037568
v 1.037568 -1.037568 0.123953
v 1.037568 1.078961 0.123953
v -1.037568 -1.037568 0.123953
v -1.037568 1.078961 0.123953
v 1.037568 -1.037568 -0.123953
v 1.037568 1.078961 -0.123953
v -1.037568 -1.037568 -0.123953
v -1.037568 1.078961 -0.123953
vt 0.195504 0.647542
vt 0.115476 0.727570
vt 0.115476 0.647542
vt 0.195504 0.727570
vt 0.115476 0.807598
vt 0.195504 0.807598
vt 0.115476 0.887626
vt 0.195504 0.887626
vt 0.115476 0.967654
vt 0.035448 0.887626
vt 0.035448 0.807598
vt 0.275532 0.807598
vt 0.474134 0.656171
vt 0.404951 0.725354
vt 0.404951 0.656171
vt 0.474134 0.725354
vt 0.404951 0.794537
vt 0.474134 0.794537
vt 0.404951 0.863721
vt 0.474134 0.863721
vt 0.404951 0.932904
vt 0.335767 0.863721
vt 0.335767 0.794537
vt 0.543317 0.794537
vt 0.260822 0.081714
vt 0.145428 0.197107
vt 0.145428 0.081714
vt 0.260822 0.197107
vt 0.145428 0.312500
vt 0.260822 0.312500
vt 0.145428 0.427893
vt 0.260822 0.427893
vt 0.145428 0.543286
vt 0.030035 0.427893
vt 0.030035 0.312500
vt 0.376215 0.312500
vt 0.732059 0.097154
vt 0.619503 0.209710
vt 0.619503 0.097154
vt 0.732059 0.209710
vt 0.619503 0.322266
vt 0.732059 0.322266
vt 0.619503 0.434821
vt 0.732059 0.434821
vt 0.619503 0.547377
vt 0.506948 0.434821
vt 0.506948 0.322266
vt 0.844615 0.434821
vt 0.195504 0.967654
vt 0.275532 0.887626
vt 0.474134 0.932904
vt 0.543317 0.863721
vt 0.260822 0.543286
vt 0.376215 0.427893
vt 0.732059 0.547377
vt 0.844615 0.322266
vn -1.0000 0.0000 0.0000
vn 0.0000 0.0000 -1.0000
vn 1.0000 0.0000 0.0000
vn 0.0000 0.0000 1.0000
vn 0.0000 -1.0000 0.0000
vn 0.0000 1.0000 0.0000
usemtl None
s off
f 2/1/1 3/2/1 1/3/1
f 4/4/2 7/5/2 3/2/2
f 8/6/3 5/7/3 7/5/3
f 6/8/4 1/9/4 5/7/4
f 7/5/5 1/10/5 3/11/5
f 4/12/6 6/8/6 8/6/6
f 10/13/1 11/14/1 9/15/1
f 12/16/2 15/17/2 11/14/2
f 16/18/3 13/19/3 15/17/3
f 14/20/4 9/21/4 13/19/4
f 15/17/5 9/22/5 11/23/5
f 12/24/6 14/20/6 16/18/6
f 18/25/1 19/26/1 17/27/1
f 20/28/2 23/29/2 19/26/2
f 24/30/3 21/31/3 23/29/3
f 22/32/4 17/33/4 21/31/4
f 23/29/5 17/34/5 19/35/5
f 20/36/6 22/32/6 24/30/6
f 26/37/4 27/38/4 25/39/4
f 28/40/1 31/41/1 27/38/1
f 32/42/2 29/43/2 31/41/2
f 30/44/3 25/45/3 29/43/3
f 31/41/5 25/46/5 27/47/5
f 32/42/6 26/48/6 30/44/6
f 2/1/1 4/4/1 3/2/1
f 4/4/2 8/6/2 7/5/2
f 8/6/3 6/8/3 5/7/3
f 6/8/4 2/49/4 1/9/4
f 7/5/5 5/7/5 1/10/5
f 4/12/6 2/50/6 6/8/6
f 10/13/1 12/16/1 11/14/1
f 12/16/2 16/18/2 15/17/2
f 16/18/3 14/20/3 13/19/3
f 14/20/4 10/51/4 9/21/4
f 15/17/5 13/19/5 9/22/5
f 12/24/6 10/52/6 14/20/6
f 18/25/1 20/28/1 19/26/1
f 20/28/2 24/30/2 23/29/2
f 24/30/3 22/32/3 21/31/3
f 22/32/4 18/53/4 17/33/4
f 23/29/5 21/31/5 17/34/5
f 20/36/6 18/54/6 22/32/6
f 26/37/4 28/40/4 27/38/4
f 28/40/1 32/42/1 31/41/1
f 32/42/2 30/44/2 29/43/2
f 30/44/3 26/55/3 25/45/3
f 31/41/5 29/43/5 25/46/5
f 32/42/6 28/56/6 26/48/6
